<svg xmlns="http://www.w3.org/2000/svg" version="1.1" xmlns:xlink="http://www.w3.org/1999/xlink" xmlns:svgjs="http://svgjs.dev/svgjs" viewBox="0 0 800 800"><defs><linearGradient x1="50%" y1="0%" x2="50%" y2="100%" id="ffflurry-grad" gradientTransform="rotate(270)"><stop stop-color="hsl(238, 3%, 94%)" stop-opacity="1" offset="0%"></stop><stop stop-color="hsl(1.4, 100%, 67%)" stop-opacity="1" offset="45%"></stop><stop stop-color="hsl(167, 52%, 78%)" stop-opacity="1" offset="100%"></stop></linearGradient></defs><rect width="100%" height="100%" fill="hsl(238, 3%, 94%)"></rect><g fill="url(#ffflurry-grad)"><rect width="348" height="3" x="214" y="275.5" rx="1.5" transform="rotate(45, 388, 277)" opacity="0.13"></rect><rect width="311" height="3" x="471.5" y="476.5" rx="1.5" transform="rotate(45, 627, 478)" opacity="0.40"></rect><rect width="186" height="3" x="291" y="752.5" rx="1.5" transform="rotate(45, 384, 754)" opacity="0.56"></rect><rect width="80" height="3" x="241" y="248.5" rx="1.5" transform="rotate(45, 281, 250)" opacity="0.93"></rect><rect width="329" height="3" x="355.5" y="495.5" rx="1.5" transform="rotate(45, 520, 497)" opacity="0.62"></rect><rect width="374" height="3" x="-10" y="622.5" rx="1.5" transform="rotate(45, 177, 624)" opacity="0.98"></rect><rect width="395" height="3" x="-108.5" y="33.5" rx="1.5" transform="rotate(45, 89, 35)" opacity="0.10"></rect><rect width="228" height="3" x="79" y="74.5" rx="1.5" transform="rotate(45, 193, 76)" opacity="0.39"></rect><rect width="259" height="3" x="551.5" y="553.5" rx="1.5" transform="rotate(45, 681, 555)" opacity="0.93"></rect><rect width="313" height="3" x="8.5" y="208.5" rx="1.5" transform="rotate(45, 165, 210)" opacity="0.08"></rect><rect width="390" height="3" x="138" y="695.5" rx="1.5" transform="rotate(45, 333, 697)" opacity="0.71"></rect><rect width="358" height="3" x="496" y="52.5" rx="1.5" transform="rotate(45, 675, 54)" opacity="0.12"></rect><rect width="345" height="3" x="-110.5" y="458.5" rx="1.5" transform="rotate(45, 62, 460)" opacity="0.87"></rect><rect width="353" height="3" x="296.5" y="573.5" rx="1.5" transform="rotate(45, 473, 575)" opacity="0.68"></rect><rect width="209" height="3" x="195.5" y="365.5" rx="1.5" transform="rotate(45, 300, 367)" opacity="0.87"></rect><rect width="155" height="3" x="620.5" y="767.5" rx="1.5" transform="rotate(45, 698, 769)" opacity="0.92"></rect><rect width="450" height="3" x="524" y="142.5" rx="1.5" transform="rotate(45, 749, 144)" opacity="0.82"></rect><rect width="80" height="3" x="391" y="615.5" rx="1.5" transform="rotate(45, 431, 617)" opacity="0.33"></rect><rect width="232" height="3" x="436" y="759.5" rx="1.5" transform="rotate(45, 552, 761)" opacity="0.20"></rect><rect width="254" height="3" x="249" y="66.5" rx="1.5" transform="rotate(45, 376, 68)" opacity="0.25"></rect><rect width="280" height="3" x="328" y="743.5" rx="1.5" transform="rotate(45, 468, 745)" opacity="0.98"></rect><rect width="52" height="3" x="640" y="636.5" rx="1.5" transform="rotate(45, 666, 638)" opacity="0.26"></rect><rect width="81" height="3" x="708.5" y="418.5" rx="1.5" transform="rotate(45, 749, 420)" opacity="0.74"></rect><rect width="62" height="3" x="427" y="46.5" rx="1.5" transform="rotate(45, 458, 48)" opacity="0.07"></rect><rect width="216" height="3" x="-27" y="240.5" rx="1.5" transform="rotate(45, 81, 242)" opacity="0.91"></rect><rect width="443" height="3" x="160.5" y="657.5" rx="1.5" transform="rotate(45, 382, 659)" opacity="0.99"></rect><rect width="366" height="3" x="241" y="478.5" rx="1.5" transform="rotate(45, 424, 480)" opacity="0.51"></rect><rect width="50" height="3" x="409" y="780.5" rx="1.5" transform="rotate(45, 434, 782)" opacity="0.51"></rect><rect width="389" height="3" x="31.5" y="560.5" rx="1.5" transform="rotate(45, 226, 562)" opacity="0.55"></rect><rect width="271" height="3" x="58.5" y="342.5" rx="1.5" transform="rotate(45, 194, 344)" opacity="0.73"></rect><rect width="506" height="3" x="-199" y="386.5" rx="1.5" transform="rotate(45, 54, 388)" opacity="0.20"></rect><rect width="299" height="3" x="618.5" y="723.5" rx="1.5" transform="rotate(45, 768, 725)" opacity="0.64"></rect><rect width="381" height="3" x="-132.5" y="611.5" rx="1.5" transform="rotate(45, 58, 613)" opacity="0.69"></rect><rect width="577" height="3" x="223.5" y="316.5" rx="1.5" transform="rotate(45, 512, 318)" opacity="0.29"></rect><rect width="126" height="3" x="472" y="46.5" rx="1.5" transform="rotate(45, 535, 48)" opacity="0.33"></rect><rect width="471" height="3" x="-45.5" y="702.5" rx="1.5" transform="rotate(45, 190, 704)" opacity="0.54"></rect><rect width="383" height="3" x="199.5" y="163.5" rx="1.5" transform="rotate(45, 391, 165)" opacity="0.39"></rect><rect width="426" height="3" x="-188" y="91.5" rx="1.5" transform="rotate(45, 25, 93)" opacity="0.90"></rect><rect width="393" height="3" x="353.5" y="676.5" rx="1.5" transform="rotate(45, 550, 678)" opacity="0.19"></rect><rect width="287" height="3" x="589.5" y="338.5" rx="1.5" transform="rotate(45, 733, 340)" opacity="0.48"></rect><rect width="62" height="3" x="337" y="564.5" rx="1.5" transform="rotate(45, 368, 566)" opacity="1.00"></rect><rect width="301" height="3" x="49.5" y="512.5" rx="1.5" transform="rotate(45, 200, 514)" opacity="0.25"></rect><rect width="553" height="3" x="-169.5" y="675.5" rx="1.5" transform="rotate(45, 107, 677)" opacity="0.81"></rect><rect width="91" height="3" x="-2.5" y="738.5" rx="1.5" transform="rotate(45, 43, 740)" opacity="0.22"></rect><rect width="369" height="3" x="360.5" y="581.5" rx="1.5" transform="rotate(45, 545, 583)" opacity="0.33"></rect><rect width="229" height="3" x="-86.5" y="532.5" rx="1.5" transform="rotate(45, 28, 534)" opacity="0.21"></rect><rect width="639" height="3" x="-46.5" y="149.5" rx="1.5" transform="rotate(45, 273, 151)" opacity="0.31"></rect><rect width="316" height="3" x="80" y="768.5" rx="1.5" transform="rotate(45, 238, 770)" opacity="0.13"></rect><rect width="89" height="3" x="271.5" y="476.5" rx="1.5" transform="rotate(45, 316, 478)" opacity="0.12"></rect><rect width="438" height="3" x="291" y="146.5" rx="1.5" transform="rotate(45, 510, 148)" opacity="0.32"></rect><rect width="257" height="3" x="346.5" y="669.5" rx="1.5" transform="rotate(45, 475, 671)" opacity="0.21"></rect><rect width="124" height="3" x="518" y="407.5" rx="1.5" transform="rotate(45, 580, 409)" opacity="0.15"></rect><rect width="121" height="3" x="-35.5" y="290.5" rx="1.5" transform="rotate(45, 25, 292)" opacity="0.20"></rect><rect width="236" height="3" x="514" y="323.5" rx="1.5" transform="rotate(45, 632, 325)" opacity="0.39"></rect><rect width="89" height="3" x="240.5" y="605.5" rx="1.5" transform="rotate(45, 285, 607)" opacity="0.55"></rect><rect width="239" height="3" x="140.5" y="693.5" rx="1.5" transform="rotate(45, 260, 695)" opacity="0.79"></rect><rect width="188" height="3" x="664" y="47.5" rx="1.5" transform="rotate(45, 758, 49)" opacity="0.68"></rect><rect width="212" height="3" x="-69" y="188.5" rx="1.5" transform="rotate(45, 37, 190)" opacity="0.69"></rect><rect width="342" height="3" x="591" y="596.5" rx="1.5" transform="rotate(45, 762, 598)" opacity="0.24"></rect><rect width="565" height="3" x="204.5" y="400.5" rx="1.5" transform="rotate(45, 487, 402)" opacity="0.75"></rect><rect width="254" height="3" x="16" y="762.5" rx="1.5" transform="rotate(45, 143, 764)" opacity="0.73"></rect><rect width="427" height="3" x="407.5" y="734.5" rx="1.5" transform="rotate(45, 621, 736)" opacity="0.99"></rect><rect width="321" height="3" x="-52.5" y="315.5" rx="1.5" transform="rotate(45, 108, 317)" opacity="0.96"></rect><rect width="721" height="3" x="276.5" y="178.5" rx="1.5" transform="rotate(45, 637, 180)" opacity="0.73"></rect><rect width="276" height="3" x="177" y="765.5" rx="1.5" transform="rotate(45, 315, 767)" opacity="0.34"></rect><rect width="523" height="3" x="474.5" y="240.5" rx="1.5" transform="rotate(45, 736, 242)" opacity="0.18"></rect><rect width="129" height="3" x="50.5" y="524.5" rx="1.5" transform="rotate(45, 115, 526)" opacity="0.59"></rect><rect width="403" height="3" x="354.5" y="238.5" rx="1.5" transform="rotate(45, 556, 240)" opacity="0.52"></rect><rect width="160" height="3" x="205" y="40.5" rx="1.5" transform="rotate(45, 285, 42)" opacity="0.94"></rect><rect width="411" height="3" x="249.5" y="228.5" rx="1.5" transform="rotate(45, 455, 230)" opacity="0.28"></rect><rect width="540" height="3" x="132" y="368.5" rx="1.5" transform="rotate(45, 402, 370)" opacity="0.94"></rect><rect width="533" height="3" x="-165.5" y="125.5" rx="1.5" transform="rotate(45, 101, 127)" opacity="0.60"></rect><rect width="419" height="3" x="527.5" y="493.5" rx="1.5" transform="rotate(45, 737, 495)" opacity="0.18"></rect><rect width="558" height="3" x="329" y="595.5" rx="1.5" transform="rotate(45, 608, 597)" opacity="0.55"></rect><rect width="284" height="3" x="557" y="687.5" rx="1.5" transform="rotate(45, 699, 689)" opacity="0.95"></rect><rect width="400" height="3" x="400" y="70.5" rx="1.5" transform="rotate(45, 600, 72)" opacity="0.24"></rect><rect width="599" height="3" x="-112.5" y="439.5" rx="1.5" transform="rotate(45, 187, 441)" opacity="0.10"></rect></g></svg>